
<svg fill="currentColor" version="1.1" id="Layer_1" xmlns="http://www.w3.org/2000/svg" xmlns:xlink="http://www.w3.org/1999/xlink" x="0px" y="0px"
	 viewBox="0 0 462.691 462.691" style="enable-background:new 0 0 462.691 462.691;" xml:space="preserve">
<g>
	<g>
		<g>
			<path d="M456.42,115.767L343.575,2.929C341.7,1.054,339.157,0,336.504,0H126.18c-2.652,0-5.196,1.054-7.071,2.929L6.271,115.767
				c-1.875,1.876-2.929,4.419-2.929,7.071V301c0,5.522,4.477,10,10,10h149.343c-9.324,7.698-14.343,16.982-14.343,27
				c0,1.794-0.156,3.769,0.119,5.535l16,103c1.975,12.719,21.742,9.676,19.763-3.07l-3.71-23.886
				c5.728,2.877,12.272,5.245,19.462,7.01l1.381,26.923c0.66,12.871,20.636,11.907,19.974-1.023l-1.165-22.724
				c3.635,0.281,7.363,0.434,11.179,0.434s7.543-0.153,11.179-0.434l-1.165,22.724c-0.661,12.893,19.312,13.93,19.974,1.023
				l1.381-26.923c7.19-1.765,13.733-4.132,19.462-7.01l-3.71,23.886c-1.976,12.724,17.784,15.81,19.763,3.07l16-103
				c0.274-1.766,0.119-3.741,0.119-5.535c0-10.018-5.018-19.302-14.343-27h149.343c5.523,0,10-4.478,10-10V122.838
				C459.349,120.186,458.295,117.643,456.42,115.767z M175.789,389.172l-2.672-17.205c0.689,0.375,1.37,0.753,2.085,1.116
				c6.662,3.376,14.247,6.085,22.442,8.063l1.243,24.244C185.917,401.123,177.708,394.725,175.789,389.172z M243.555,409.583
				c-3.865,0.398-7.943,0.615-12.213,0.615c-4.27,0-8.348-0.217-12.213-0.615l-1.292-25.186c4.427,0.391,8.937,0.602,13.505,0.602
				c4.568,0,9.078-0.211,13.505-0.602L243.555,409.583z M286.895,389.172c-1.919,5.553-10.127,11.95-23.098,16.218l1.243-24.244
				c8.194-1.977,15.78-4.686,22.442-8.063c0.715-0.363,1.397-0.741,2.085-1.116L286.895,389.172z M231.342,365
				c-36.058,0-63-14.255-63-27s26.942-27,63-27c36.058,0,63,14.255,63,27S267.4,365,231.342,365z M309.342,291h-156V186h156V291z
				 M439.342,291h-110V176c0-5.522-4.477-10-10-10h-176c-5.523,0-10,4.478-10,10v115h-110V126.98L130.322,20h202.04l106.98,106.98
				V291z"/>
			<path d="M132.271,45.429l-13,13c-3.905,3.905-3.905,10.237,0,14.143c1.953,1.952,4.512,2.929,7.071,2.929
				c2.559,0,5.119-0.977,7.071-2.929l13-13c3.905-3.905,3.905-10.237,0-14.143C142.508,41.524,136.176,41.524,132.271,45.429z"/>
			<path d="M94.271,83.429l-48.5,48.5c-3.905,3.905-3.905,10.237,0,14.143c1.953,1.952,4.512,2.929,7.071,2.929
				c2.559,0,5.119-0.977,7.071-2.929l48.5-48.5c3.905-3.905,3.905-10.237,0-14.143C104.508,79.524,98.176,79.524,94.271,83.429z"/>
		</g>
	</g>
</g>
<g>
</g>
<g>
</g>
<g>
</g>
<g>
</g>
<g>
</g>
<g>
</g>
<g>
</g>
<g>
</g>
<g>
</g>
<g>
</g>
<g>
</g>
<g>
</g>
<g>
</g>
<g>
</g>
<g>
</g>
</svg>
